<svg xmlns="http://www.w3.org/2000/svg" width="1024" height="1024" viewBox="0 0 1024 1024">
  <defs>
    <radialGradient id="bg" cx="30%" cy="20%" r="90%">
      <stop offset="0%" stop-color="#1b2230"/>
      <stop offset="55%" stop-color="#0f141d"/>
      <stop offset="100%" stop-color="#0b0c10"/>
    </radialGradient>
    <linearGradient id="stroke" x1="0" y1="0" x2="1" y2="1">
      <stop offset="0%" stop-color="#8fb8ff" stop-opacity="0.9"/>
      <stop offset="100%" stop-color="#4ea1ff" stop-opacity="0.7"/>
    </linearGradient>
    <filter id="shadow" x="-20%" y="-20%" width="140%" height="140%">
      <feDropShadow dx="0" dy="18" stdDeviation="22" flood-color="#000" flood-opacity="0.55"/>
    </filter>
  </defs>

  <rect x="0" y="0" width="1024" height="1024" rx="224" fill="url(#bg)"/>

  <g filter="url(#shadow)">
    <path d="M512 170c-135 0-244 109-244 244 0 165 204 356 244 392 40-36 244-227 244-392 0-135-109-244-244-244z"
          fill="#111826" stroke="url(#stroke)" stroke-width="18" />
    <circle cx="512" cy="414" r="118" fill="#0b0c10" stroke="url(#stroke)" stroke-width="14"/>
  </g>

  <g font-family="system-ui, -apple-system, Segoe UI, Roboto, Arial, sans-serif" font-weight="800" text-anchor="middle">
    <text x="512" y="468" font-size="170" fill="#e8ecf1">FC</text>
  </g>

  <g opacity="0.55">
    <path d="M240 760c120-88 260-132 422-132 63 0 126 6 188 18"
          fill="none" stroke="#2a3346" stroke-width="16" stroke-linecap="round"/>
    <path d="M250 830c134-98 288-147 462-147 52 0 104 4 155 12"
          fill="none" stroke="#1f2839" stroke-width="14" stroke-linecap="round"/>
  </g>
</svg>
